<svg id="Layer_1" data-name="Layer 1" xmlns="http://www.w3.org/2000/svg" xmlns:xlink="http://www.w3.org/1999/xlink" viewBox="0 0 512 512"><defs><style>.cls-1{fill:none;}.cls-2{fill:url(#linear-gradient);}.cls-3{fill:#1f8acb;}.cls-4{fill:url(#linear-gradient-2);}.cls-5{fill:#aee0e9;}.cls-6{clip-path:url(#clip-path);}.cls-7{fill:#00776a;}.cls-8{fill:#19ae52;}.cls-9{fill:#31b358;}.cls-10{fill:#36b558;}.cls-11{fill:#40b877;}.cls-12{fill:#01685d;}.cls-13{fill:#007876;}.cls-14{fill:#47b75a;}.cls-15{fill:#47b979;}.cls-16{fill:#fbe944;}.cls-17{clip-path:url(#clip-path-2);}.cls-18{fill:url(#linear-gradient-3);}.cls-19{fill:url(#linear-gradient-4);}.cls-20{fill:url(#linear-gradient-5);}.cls-21{fill:#fec40e;}.cls-22{fill:url(#linear-gradient-6);}.cls-23{fill:url(#linear-gradient-7);}.cls-24{fill:url(#linear-gradient-8);}.cls-25{fill:url(#linear-gradient-9);}.cls-26{fill:url(#linear-gradient-10);}.cls-27{fill:url(#linear-gradient-11);}.cls-28{fill:url(#linear-gradient-12);}.cls-29{fill:#ffc60a;}</style><linearGradient id="linear-gradient" x1="171.39" y1="414.66" x2="347.44" y2="457.18" gradientUnits="userSpaceOnUse"><stop offset="0" stop-color="#0479b5"/><stop offset="1" stop-color="#2088c9"/></linearGradient><linearGradient id="linear-gradient-2" x1="256.09" y1="85.33" x2="256.09" y2="428.89" gradientUnits="userSpaceOnUse"><stop offset="0" stop-color="#2dbeef"/><stop offset="1" stop-color="#038ac7"/></linearGradient><clipPath id="clip-path"><rect class="cls-1" x="55.1" y="122.66" width="402.69" height="269.52"/></clipPath><clipPath id="clip-path-2"><rect class="cls-1" x="21.17" y="85.33" width="469.83" height="341" rx="30.58" ry="30.58"/></clipPath><linearGradient id="linear-gradient-3" x1="15.6" y1="294.52" x2="15.6" y2="435.89" gradientUnits="userSpaceOnUse"><stop offset="0.09" stop-color="#fdb714"/><stop offset="1" stop-color="#fdc30e"/></linearGradient><linearGradient id="linear-gradient-4" x1="16.2" y1="294.52" x2="16.2" y2="435.89" gradientUnits="userSpaceOnUse"><stop offset="0.21" stop-color="#fdb714"/><stop offset="1" stop-color="#fdc30e"/></linearGradient><linearGradient id="linear-gradient-5" x1="15.62" y1="354.72" x2="15.62" y2="433.54" gradientUnits="userSpaceOnUse"><stop offset="0" stop-color="#fed12d"/><stop offset="1" stop-color="#fdc30e"/></linearGradient><linearGradient id="linear-gradient-6" x1="15.6" y1="273.57" x2="15.6" y2="437.13" xlink:href="#linear-gradient-3"/><linearGradient id="linear-gradient-7" x1="16.17" y1="273.57" x2="16.17" y2="437.13" xlink:href="#linear-gradient-5"/><linearGradient id="linear-gradient-8" x1="17.14" y1="213.16" x2="17.14" y2="440.36" xlink:href="#linear-gradient-3"/><linearGradient id="linear-gradient-9" x1="17.49" y1="213.16" x2="17.49" y2="440.36" xlink:href="#linear-gradient-3"/><linearGradient id="linear-gradient-10" x1="-235.88" y1="564.98" x2="270.16" y2="564.98" xlink:href="#linear-gradient-3"/><linearGradient id="linear-gradient-11" x1="17.14" y1="180.97" x2="17.14" y2="428.75" xlink:href="#linear-gradient-3"/><linearGradient id="linear-gradient-12" x1="17.48" y1="180.97" x2="17.48" y2="428.75" xlink:href="#linear-gradient-3"/></defs><title>logo</title><polygon class="cls-2" points="344 417.33 168.25 417.33 168.25 428.39 202.11 461.1 344 461.1 344 417.33"/><polygon class="cls-3" points="168.25 428.39 168.25 461.1 202.11 461.1 168.25 428.39"/><rect class="cls-4" x="21.17" y="85.33" width="469.83" height="341" rx="30.58" ry="30.58"/><rect class="cls-5" x="55.1" y="122.66" width="402.69" height="269.52"/><g class="cls-6"><polygon class="cls-7" points="253.87 310.53 270.25 293.78 227 249.83 209.45 267.03 253.87 310.53 253.87 310.53"/><polygon class="cls-8" points="253.87 310.53 281.8 337.88 253.87 310.53 253.87 310.53"/><polygon class="cls-9" points="342.01 396.83 342.01 396.83 281.8 337.88 342.01 396.83"/><polygon class="cls-10" points="281.8 337.88 253.87 310.53 177.26 388.83 333.84 388.83 281.8 337.88"/><polygon class="cls-11" points="177.26 388.83 169.44 396.83 342.01 396.83 333.84 388.83 177.26 388.83"/><polygon class="cls-12" points="253.87 310.53 209.45 267.03 85.16 388.83 177.26 388.83 253.87 310.53"/><polygon class="cls-13" points="85.16 388.83 77 396.83 169.44 396.83 177.26 388.83 85.16 388.83"/><polygon class="cls-14" points="467.96 291.39 369.96 191.89 270.27 293.8 270.25 293.78 253.87 310.53 281.8 337.88 333.84 388.83 467.96 388.83 467.96 291.39"/><path class="cls-15" d="M333.84,388.83l8.17,8,0,.06,5.2,5.09L468,403.39V388.83Z"/><circle class="cls-16" cx="137.79" cy="180.08" r="44.17"/></g><g class="cls-17"><path class="cls-18" d="M130.13,424.11a151.35,151.35,0,0,1,.26,23.84c-4.73,71.1-50,118.86-112.71,118.86-65.43,0-116.92-52.54-117.21-119.61a112.44,112.44,0,0,1,2.34-23.1h-29.64a140.15,140.15,0,0,0-1.82,23c.17,39.8,15.37,77,42.8,104.69a144.16,144.16,0,0,0,103.2,43c38.71,0,74.24-15.06,100.06-42.4,24.48-25.93,39.42-62.05,42.06-101.71a175,175,0,0,0-.23-26.54Z"/><path class="cls-19" d="M-61.3,358.65C-39,336.3-10.66,323.48,16.4,323.48h.41c35.28.16,64.7,11.79,85.08,33.62,16.11,17.25,25.81,40.51,28.24,67h29.11c-2.83-33.1-15.34-62.73-36.36-85.24C97,311.13,59.3,295.74,16.84,295.54h-.57c-35.29,0-71.36,15.86-99,43.51-23.63,23.67-39.09,53.78-44.15,85.07H-97.2C-92.29,400.22-79.81,377.2-61.3,358.65Z"/><path class="cls-20" d="M102.79,447.47c3.61-54.29-28.23-95-86.37-95-45.52,0-88.47,44.45-88.25,93.46.22,50.51,39.77,90,88.7,90S99.43,497.88,102.79,447.47Z"/><path class="cls-21" d="M16.38,356.7c-36.54,0-71.35,30-81.34,67.41H98C92.14,384.35,63.19,356.7,16.38,356.7Z"/><path class="cls-21" d="M-65,424.11a82.79,82.79,0,0,0-2.86,21.76c.21,48.19,37.95,85.9,84.63,85.9s78.77-36.36,82-84.45A109.87,109.87,0,0,0,98,424.11Z"/><path class="cls-22" d="M159.24,424.11a175,175,0,0,1,.23,26.54c-2.64,39.66-17.58,75.78-42.06,101.71-25.81,27.34-61.35,42.4-100.06,42.4a144.16,144.16,0,0,1-103.2-43c-27.43-27.71-42.63-64.89-42.8-104.69a140.15,140.15,0,0,1,1.82-23h-28a166.41,166.41,0,0,0-1.57,23.34c.21,47.46,18.33,91.78,51,124.82a171.87,171.87,0,0,0,123,51.25c46.15,0,88.52-18,119.3-50.55,29.19-30.92,47-74,50.15-121.26a210.1,210.1,0,0,0,0-27.6Z"/><path class="cls-23" d="M-82.69,339c27.6-27.65,63.68-43.51,99-43.51h.57c42.46.2,80.12,15.59,106,43.34,21,22.51,33.53,52.14,36.36,85.24h27.92c-2.67-41.09-17.74-77.92-43.66-105.67C112.6,285.36,67.7,267,17.08,266.77H16.4c-42.07,0-85.08,18.91-118,51.87-29.19,29.24-47.92,66.72-53.23,105.47h28C-121.78,392.82-106.33,362.71-82.69,339Z"/><path class="cls-24" d="M216.21,424.11q.83,11.82.49,24C213.3,564.7,127.87,652.63,18,652.63c-111.94,0-200-89.68-200.51-204.16A189.69,189.69,0,0,1-181,424.11h-30a218.58,218.58,0,0,0-1.26,24.22c.27,62.89,24.26,121.61,67.54,165.33A227.14,227.14,0,0,0,17.9,681.39c61.31,0,118.45-24.07,160.89-67.76,41.78-43,65.79-101.38,67.63-164.36q.37-12.72-.44-25.15Z"/><path class="cls-25" d="M-117.68,297.74C-79.57,259.57-30.85,237.67,16,237.67h.72c58,.27,107.94,20.29,144.38,57.88,32.49,33.51,51.63,78.51,55.13,128.56H246c-3.69-57.19-25.81-109-63.57-148A215.16,215.16,0,0,0,110,227c-28.54-11.86-59.84-17.95-93-18.1H16.1c-55.3,0-112,25-155.55,68.64-40.46,40.53-65.79,92.88-71.54,146.56h30C-175.28,378.06-152.93,333-117.68,297.74Z"/><path class="cls-26" d="M219.72,424.11q.82,11.88.48,24.1C216.74,566.74,129.81,656.12,18,656.12c-113.89,0-203.5-91.21-204-207.64a193,193,0,0,1,1.46-24.36h-50.15a240.65,240.65,0,0,0-1.17,24.58c.3,69.41,26.77,134.21,74.51,182.44A250.52,250.52,0,0,0,18,705.84c67.6,0,130.6-26.53,177.4-74.71C241.49,583.65,268,519.2,270,449.66q.38-12.91-.36-25.54Z"/><path class="cls-27" d="M246,424.11q.8,12.42.44,25.15c-1.84,63-25.85,121.34-67.63,164.36-42.44,43.7-99.58,67.76-160.89,67.76a227.14,227.14,0,0,1-162.61-67.73C-188,569.94-212,511.22-212.25,448.33A218.58,218.58,0,0,1-211,424.11h-27.23a244,244,0,0,0-1.16,24.59c.31,70.33,27.13,136,75.52,184.88A254,254,0,0,0,18,709.33c68.56,0,132.45-26.91,179.92-75.78,46.72-48.1,73.58-113.37,75.63-183.79q.38-13-.35-25.64Z"/><path class="cls-28" d="M-139.45,277.55C-95.9,233.93-39.2,208.91,16.1,208.91H17c33.2.15,64.5,6.25,93,18.1a215.16,215.16,0,0,1,72.39,49.11c37.76,39,59.88,90.8,63.57,148h27.2c-3.64-64.94-28.45-123.86-71.22-168a240.61,240.61,0,0,0-81-54.92C89.09,188,54.09,181.14,17,181H16c-61.84,0-125.25,28-174,76.76-45.87,45.95-74.35,105.49-80.25,166.38H-211C-205.25,370.43-179.92,318.08-139.45,277.55Z"/><path class="cls-29" d="M-120.16,295.27c38.76-38.83,88.39-61.1,136.14-61.1h.74c59,.28,109.77,20.66,146.88,58.94,33.12,34.16,52.62,80,56.12,131h50c-3.63-64-28.09-122.08-70.23-165.55a237.11,237.11,0,0,0-79.78-54.12c-31.49-13.08-66-19.81-102.7-20H16c-60.92,0-123.42,27.6-171.47,75.73-45.22,45.29-73.33,103.94-79.22,163.92h50.15C-178.8,377.14-156.07,331.23-120.16,295.27Z"/><path class="cls-21" d="M-63.78,356.19c23-23,52.2-36.2,80.18-36.2h.43c36.27.17,66.57,12.18,87.63,34.73,16.71,17.89,26.75,42,29.19,69.4h50c-2.66-40.2-17.4-76.19-42.71-103.29C110.7,288.46,66.71,270.5,17.07,270.27H16.4c-41.15,0-83.25,18.53-115.51,50.84-28.54,28.58-46.88,65.17-52.18,103h50.52C-95.82,399.3-83,375.39-63.78,356.19Z"/></g></svg>